<svg width="18" height="20" viewBox="0 0 18 20" fill="none" xmlns="http://www.w3.org/2000/svg">
<path fill-rule="evenodd" clip-rule="evenodd" d="M12.7917 0C15.9072 0 18 2.16273 18 5.38122V14.6188C18 17.8654 15.9716 19.9769 12.8324 19.997L5.20925 20C2.09381 20 0 17.8373 0 14.6188V5.38122C0 2.1336 2.02841 0.023104 5.16763 0.00401808L12.7908 0H12.7917ZM12.7917 1.50678L5.17259 1.5108C2.86573 1.52486 1.48637 2.97137 1.48637 5.38122V14.6188C1.48637 17.0447 2.87861 18.4932 5.20826 18.4932L12.8274 18.4902C15.1343 18.4761 16.5136 17.0276 16.5136 14.6188V5.38122C16.5136 2.9553 15.1224 1.50678 12.7917 1.50678ZM12.6006 13.5346C13.0108 13.5346 13.3438 13.8721 13.3438 14.288C13.3438 14.7039 13.0108 15.0414 12.6006 15.0414H5.44618C5.03594 15.0414 4.70299 14.7039 4.70299 14.288C4.70299 13.8721 5.03594 13.5346 5.44618 13.5346H12.6006ZM12.6006 9.32918C13.0108 9.32918 13.3438 9.6667 13.3438 10.0826C13.3438 10.4984 13.0108 10.836 12.6006 10.836H5.44618C5.03594 10.836 4.70299 10.4984 4.70299 10.0826C4.70299 9.6667 5.03594 9.32918 5.44618 9.32918H12.6006ZM8.17586 5.1335C8.58609 5.1335 8.91904 5.47102 8.91904 5.88689C8.91904 6.30276 8.58609 6.64028 8.17586 6.64028H5.44588C5.03564 6.64028 4.70269 6.30276 4.70269 5.88689C4.70269 5.47102 5.03564 5.1335 5.44588 5.1335H8.17586Z" fill="white"/>
</svg>
