<svg width="16" height="16" viewBox="0 0 16 16" fill="none" xmlns="http://www.w3.org/2000/svg">
<g clipPath="url(#clip0_40_205)">
<path d="M9.875 8.46875V16H13.625C14.4004 16 15.0625 15.3692 15.0625 14.5938V8.46875H9.875Z" fill="#3855B3"/>
<path d="M0.9375 8.46875V14.5938C0.9375 15.3692 1.56831 16 2.34375 16H6.125V8.46875H0.9375Z" fill="#3855B3"/>
<path d="M14.5938 3.75H12.6755C12.973 3.35706 13.1562 2.87337 13.1562 2.34375C13.1562 1.05147 12.1048 0 10.8125 0C9.17678 0 8.70319 1.17828 8 2.96259C7.29681 1.17828 6.82322 0 5.1875 0C3.89522 0 2.84375 1.05147 2.84375 2.34375C2.84375 2.87337 3.02703 3.35706 3.32447 3.75H1.40625C0.630813 3.75 0 4.38081 0 5.15625V6.125C0 6.90044 0.630813 7.53125 1.40625 7.53125H6.125V3.75H5.1875C4.41206 3.75 3.78125 3.11919 3.78125 2.34375C3.78125 1.56831 4.41206 0.9375 5.1875 0.9375C6.14834 0.9375 6.42163 1.51381 7.13987 3.33619C7.18994 3.46344 7.25237 3.61441 7.30634 3.75H7.0625C7.0625 10.7401 7.0625 9.00684 7.0625 16H8.9375C8.9375 5.02763 8.9375 6.7975 8.9375 3.75H8.69369C8.74766 3.61438 8.81006 3.46344 8.86016 3.33619C9.57837 1.51381 9.85166 0.9375 10.8125 0.9375C11.5879 0.9375 12.2188 1.56831 12.2188 2.34375C12.2188 3.11919 11.5879 3.75 10.8125 3.75H9.875V7.53125H14.5938C15.3692 7.53125 16 6.90044 16 6.125V5.15625C16 4.38081 15.3692 3.75 14.5938 3.75Z" fill="#3855B3"/>
</g>
<defs>
<clipPath id="clip0_40_205">
<rect width="16" height="16" fill="white"/>
</clipPath>
</defs>
</svg>
