<svg width="16" height="16" viewBox="0 0 16 16" fill="none" xmlns="http://www.w3.org/2000/svg">
<g clipPath="url(#clip0_40_141)">
<path d="M8.36264 6.35999V7.16443C8.36264 7.41992 8.41366 7.63428 8.51437 7.80127C8.65329 8.03174 8.88131 8.16382 9.14022 8.16382C9.39389 8.16382 9.64596 8.04028 9.88937 7.79688L12.5463 5.13989C13.1297 4.55652 13.1297 3.6073 12.5463 3.02393L9.88937 0.366943C9.64596 0.123413 9.39389 0 9.14022 0C8.75314 0 8.36264 0.309082 8.36264 0.99939V1.72998C4.59042 1.95276 1.46762 4.84766 1.00351 8.63782C0.977513 8.84949 1.09787 9.05212 1.29624 9.13062C1.35239 9.15283 1.41086 9.16357 1.4686 9.16357C1.61484 9.16357 1.75669 9.09509 1.84702 8.97168C3.09189 7.27075 5.09067 6.25525 7.19369 6.25525C7.58334 6.25525 7.97519 6.29041 8.36264 6.35999Z" fill="#E83274"/>
<path d="M14.6954 6.86892C14.497 6.7903 14.2707 6.85573 14.1446 7.02797C12.8998 8.72878 10.901 9.74429 8.79802 9.74429C8.40837 9.74429 8.01653 9.70913 7.62907 9.63955V8.83511C7.62907 8.1448 7.23845 7.83571 6.85149 7.83571C6.59782 7.83571 6.34575 7.95925 6.10222 8.20278L3.44524 10.8596C2.86198 11.443 2.86198 12.3922 3.44536 12.9757L6.10222 15.6326C6.34575 15.8761 6.59782 15.9995 6.85149 15.9995C7.23845 15.9995 7.62907 15.6905 7.62907 15.0002V14.2696C11.4014 14.0468 14.5241 11.1519 14.9882 7.36184C15.0142 7.15004 14.8938 6.94741 14.6954 6.86892Z" fill="#E83274"/>
</g>
<defs>
<clipPath id="clip0_40_141">
<rect width="16" height="16" fill="white"/>
</clipPath>
</defs>
</svg>
