<svg width="16" height="16" viewBox="0 0 16 16" fill="none" xmlns="http://www.w3.org/2000/svg">
<g clip-path="url(#clip0_52_330)">
<path d="M14.9361 8.2073C14.8718 8.07558 14.8718 7.92452 14.9361 7.79283L15.5329 6.57206C15.8651 5.89234 15.6019 5.08219 14.9336 4.7276L13.7333 4.09073C13.6038 4.02204 13.515 3.89979 13.4896 3.75545L13.2549 2.41705C13.1242 1.67186 12.4349 1.17112 11.6859 1.27708L10.3405 1.4674C10.1953 1.4879 10.0517 1.44121 9.94634 1.3393L8.96975 0.394557C8.42597 -0.131503 7.5741 -0.131535 7.03035 0.394557L6.05373 1.3394C5.94836 1.44133 5.80477 1.48793 5.65958 1.46749L4.31418 1.27718C3.56496 1.17115 2.87591 1.67196 2.74519 2.41714L2.51044 3.75548C2.4851 3.89985 2.39631 4.02207 2.26685 4.09079L1.06654 4.72766C0.39823 5.08222 0.134982 5.89244 0.46723 6.57215L1.06395 7.7929C1.12832 7.92461 1.12832 8.07568 1.06395 8.20736L0.467199 9.42811C0.13495 10.1078 0.398199 10.918 1.06651 11.2726L2.26681 11.9094C2.39631 11.9781 2.4851 12.1004 2.51044 12.2447L2.74519 13.5831C2.86419 14.2615 3.44587 14.7372 4.1144 14.7372C4.18024 14.7372 4.24706 14.7325 4.31421 14.723L5.65961 14.5327C5.8047 14.5121 5.94839 14.5589 6.05376 14.6608L7.03035 15.6056C7.30229 15.8686 7.6511 16.0001 8.00004 16.0001C8.34888 16.0001 8.69791 15.8686 8.96972 15.6056L9.94634 14.6608C10.0517 14.5589 10.1953 14.5124 10.3405 14.5327L11.6859 14.723C12.4352 14.829 13.1242 14.3283 13.2549 13.5831L13.4897 12.2447C13.515 12.1004 13.6038 11.9782 13.7333 11.9094L14.9336 11.2726C15.6019 10.918 15.8651 10.1078 15.5329 9.42807L14.9361 8.2073ZM6.15439 3.84741C7.08726 3.84741 7.84623 4.60638 7.84623 5.53925C7.84623 6.47212 7.08726 7.23109 6.15439 7.23109C5.22152 7.23109 4.46255 6.47212 4.46255 5.53925C4.46255 4.60638 5.22152 3.84741 6.15439 3.84741ZM5.28114 11.3714C5.19105 11.4615 5.07296 11.5066 4.9549 11.5066C4.83683 11.5066 4.71871 11.4616 4.62865 11.3714C4.44846 11.1913 4.44846 10.8991 4.62865 10.7189L10.7189 4.62866C10.8991 4.44847 11.1912 4.44847 11.3714 4.62866C11.5516 4.80885 11.5516 5.101 11.3714 5.28119L5.28114 11.3714ZM9.84562 12.1527C8.91275 12.1527 8.15379 11.3938 8.15379 10.4609C8.15379 9.52804 8.91275 8.76908 9.84562 8.76908C10.7785 8.76908 11.5375 9.52804 11.5375 10.4609C11.5375 11.3938 10.7785 12.1527 9.84562 12.1527Z" fill="#4CAF50"/>
<path d="M9.84569 9.69141C9.42166 9.69141 9.07666 10.0364 9.07666 10.4604C9.07666 10.8844 9.42163 11.2294 9.84569 11.2294C10.2697 11.2294 10.6147 10.8844 10.6147 10.4604C10.6147 10.0364 10.2697 9.69141 9.84569 9.69141Z" fill="#4CAF50"/>
<path d="M6.15425 4.76953C5.73022 4.76953 5.38525 5.1145 5.38525 5.53853C5.38525 5.96256 5.73022 6.30755 6.15425 6.30755C6.57828 6.30755 6.92328 5.96259 6.92328 5.53853C6.92325 5.11453 6.57828 4.76953 6.15425 4.76953Z" fill="#4CAF50"/>
</g>
<defs>
<clipPath id="clip0_52_330">
<rect width="16" height="16" fill="white"/>
</clipPath>
</defs>
</svg>
